<?xml version="1.0" standalone="no"?>
<!DOCTYPE svg PUBLIC "-//W3C//DTD SVG 20010904//EN"
 "http://www.w3.org/TR/2001/REC-SVG-20010904/DTD/svg10.dtd">
<svg version="1.0" xmlns="http://www.w3.org/2000/svg"
 width="24.000000pt" height="24.000000pt" viewBox="0 0 24.000000 24.000000"
 preserveAspectRatio="xMidYMid meet">

<g transform="translate(0.000000,24.000000) scale(0.100000,-0.100000)"
stroke="none">
<path fill="#Ñ70101" d="M97 234 c-4 -4 -7 -40 -7 -80 l0 -74 -25 12 c-20 9 -28 9 -38 -1 -9
-10 -3 -20 30 -52 36 -33 49 -39 87 -39 60 0 78 19 74 78 -3 43 -6 47 -45 66
-35 18 -42 26 -45 55 -3 33 -17 49 -31 35z"/>
<path   d="M30 205 c-9 -10 -9 -15 -1 -15 6 0 11 -16 11 -35 0 -19 5 -35 10 -35
6 0 10 16 10 35 0 19 5 35 11 35 8 0 8 5 -1 15 -7 8 -16 15 -20 15 -4 0 -13
-7 -20 -15z"/>
</g>
</svg>
